<svg width="16" height="16" viewBox="0 0 16 16" fill="none" xmlns="http://www.w3.org/2000/svg">
<path fill-rule="evenodd" clip-rule="evenodd" d="M8 16C12.4183 16 16 12.4183 16 8C16 3.58172 12.4183 0 8 0C3.58172 0 0 3.58172 0 8C0 12.4183 3.58172 16 8 16ZM10.7968 12.9436H12.0282C12.2094 12.9436 12.3563 13.0905 12.3563 13.2717C12.3563 13.4529 12.2094 13.5998 12.0282 13.5998H10.5585H10.5554H5.26993L5.26777 13.5999L5.26565 13.5998H3.97176C3.79054 13.5998 3.64363 13.4529 3.64363 13.2717C3.64363 13.0905 3.79054 12.9436 3.97176 12.9436H5.0327L6.34435 9.08355V6.55558C6.34435 6.37437 6.49127 6.22745 6.67248 6.22745H7.62516V5.69611C7.1134 5.5525 6.7369 5.08205 6.7369 4.52502C6.7369 3.85431 7.28258 3.30864 7.95329 3.30864C8.624 3.30864 9.16968 3.85429 9.16968 4.52502C9.16968 5.08205 8.79319 5.5525 8.28142 5.69611V6.22745H9.25466C9.43588 6.22745 9.58279 6.37437 9.58279 6.55558V9.08734L10.4389 11.8069L10.4402 11.8107L10.7968 12.9436ZM8.92654 8.80966V8.16631H7.00061V8.80966H8.92654ZM7.93592 11.13L8.73353 9.46589H7.18151L7.93592 11.13ZM7.41862 11.5784L6.71621 10.0289L6.1897 11.5784H7.41862ZM9.679 11.5784L9.19129 10.0292L8.44878 11.5784H9.679ZM9.88561 12.2346H5.9667L5.72579 12.9436H10.1088L9.88561 12.2346ZM10.0078 5.58212C10.0718 5.64619 10.1558 5.67824 10.2398 5.67824C10.3237 5.67824 10.4077 5.64622 10.4718 5.58212C11.09 4.9639 11.09 3.95799 10.4718 3.33979C10.3437 3.21165 10.1359 3.21165 10.0077 3.33979C9.8796 3.46794 9.8796 3.67569 10.0077 3.80383C10.3701 4.16618 10.3701 4.75576 10.0077 5.1181C9.8796 5.24623 9.8796 5.45398 10.0078 5.58212ZM10.8517 6.42598C10.7235 6.29784 10.7235 6.09009 10.8517 5.96195C11.6793 5.13428 11.6793 3.78758 10.8516 2.95994C10.7235 2.83179 10.7235 2.62404 10.8516 2.4959C10.9798 2.36775 11.1876 2.36775 11.3157 2.4959C12.3992 3.57942 12.3992 5.34244 11.3157 6.42598C11.2516 6.49008 11.1676 6.5221 11.0837 6.5221C10.9997 6.5221 10.9157 6.49006 10.8517 6.42598ZM5.49963 5.58215C5.56371 5.64622 5.64769 5.67827 5.73164 5.67827C5.8156 5.67827 5.8996 5.64624 5.96365 5.58215C6.0918 5.454 6.0918 5.24625 5.96365 5.11811C5.60133 4.75576 5.60133 4.16618 5.96365 3.80384C6.0918 3.67569 6.0918 3.46794 5.96365 3.33979C5.83553 3.21165 5.62776 3.21165 5.49961 3.33979C4.88142 3.95803 4.88142 4.96395 5.49963 5.58215ZM5.1198 6.42598C5.05575 6.49006 4.97175 6.5221 4.88779 6.5221C4.80381 6.5221 4.71983 6.49006 4.65576 6.42598C3.57224 5.34244 3.57224 3.57942 4.65576 2.4959C4.7839 2.36775 4.99167 2.36775 5.1198 2.4959C5.24794 2.62404 5.24794 2.83179 5.1198 2.95994C4.29215 3.78758 4.29215 5.13428 5.1198 5.96195C5.24794 6.09009 5.24794 6.29786 5.1198 6.42598Z" fill="white" fill-opacity="0.5"/>
</svg>
