<svg width="16" height="16" viewBox="0 0 16 16" fill="none" xmlns="http://www.w3.org/2000/svg">
<path d="M8 0C3.58175 0 0 3.58175 0 8C0 12.4182 3.58175 16 8 16C12.4182 16 16 12.4182 16 8C15.995 3.58385 12.4162 0.00502232 8 0ZM8 12.2857C5.63309 12.2857 3.71429 10.3669 3.71429 8C3.71429 5.63309 5.63309 3.71429 8 3.71429C10.3669 3.71429 12.2857 5.63309 12.2857 8C12.2831 10.3658 10.3658 12.2831 8 12.2857Z" fill="white" fill-opacity="0.5"/>
<path d="M10.4001 7.99996C10.4001 6.67448 9.32558 5.59996 8.0001 5.59996C6.67462 5.59996 5.6001 6.67448 5.6001 7.99996C5.6001 9.32544 6.67462 10.4 8.0001 10.4C9.32558 10.4 10.4001 9.32544 10.4001 7.99996Z" fill="white" fill-opacity="0.5"/>
</svg>
