<svg width="16" height="16" viewBox="0 0 16 16" fill="none" xmlns="http://www.w3.org/2000/svg">
<path d="M8 0C3.58172 0 0 3.58172 0 8C0 12.4183 3.58172 16 8 16C12.4183 16 16 12.4183 16 8C16 3.58172 12.4183 0 8 0ZM7.42856 3.80953H8.57141V8H7.42856V3.80953ZM10.5591 10.5591C9.87553 11.2426 8.96669 11.6191 8 11.6191C7.03331 11.6191 6.1245 11.2426 5.44094 10.5591C4.75741 9.87553 4.38094 8.96669 4.38094 8C4.38094 7.03331 4.75741 6.1245 5.44094 5.44094L6.24906 6.24906C5.78137 6.71675 5.52381 7.33859 5.52381 8C5.52381 8.66141 5.78137 9.28325 6.24906 9.75094C6.71675 10.2186 7.33859 10.4762 8 10.4762C8.66141 10.4762 9.28325 10.2186 9.75091 9.75094C10.2186 9.28325 10.4762 8.66141 10.4762 8C10.4762 7.33859 10.2186 6.71675 9.75094 6.24906L10.5591 5.44094C11.2426 6.12447 11.6191 7.03331 11.6191 8C11.6191 8.96669 11.2426 9.8755 10.5591 10.5591Z" fill="white" fill-opacity="0.5"/>
</svg>
