<svg width="24" height="26" viewBox="0 0 24 26" fill="none" xmlns="http://www.w3.org/2000/svg">
<path fill-rule="evenodd" clip-rule="evenodd" d="M23.2941 13.739C23.3893 13.4772 23.4494 13.0455 23.4494 12.779C23.4494 12.5816 23.4527 12.3909 23.4558 12.2049L23.4558 12.2047C23.4725 11.2133 23.4869 10.358 23.0005 9.37321C22.9302 9.23094 22.8256 9.10796 22.6982 9.01333C22.4297 8.81387 22.2054 8.69896 21.7941 8.69896H20.8398C19.4372 5.64734 16.6144 3.38373 13.218 2.75481C12.9224 2.70007 12.6993 2.44771 12.6993 2.14708V1.85896C12.7412 1.52471 12.5155 0.885041 11.2941 0.954724C10.0728 0.885041 9.84711 1.52471 9.88898 1.85896V6.65896C9.88898 7.39528 9.70265 7.88267 9.5249 8.15774C8.39891 8.55921 7.40425 9.34744 6.75971 10.4638C6.74464 10.4899 6.72982 10.5161 6.71525 10.5424L4.25526 9.39573C4.93313 8.11273 5.96893 6.99905 7.31835 6.21997L7.68208 6.00997C8.25603 5.6786 8.45268 4.9447 8.12131 4.37074L7.34131 3.01974C6.98875 2.40909 6.5715 2.28639 5.87992 2.40855C5.60559 2.457 5.20168 2.6208 4.97089 2.75405C4.79994 2.85274 4.63305 2.94538 4.47036 3.0357C3.60347 3.51691 2.8555 3.93211 2.24591 4.84574C2.15784 4.97774 2.10366 5.12985 2.0854 5.28748C2.04689 5.6197 2.05955 5.87147 2.26515 6.22758L2.74234 7.0541C0.800826 9.79453 0.251905 13.371 1.40546 16.6268C1.50585 16.9102 1.39883 17.2296 1.13848 17.3799L0.888959 17.5239C0.578559 17.6548 0.137412 18.1701 0.808453 19.193C1.3588 20.2856 2.02559 20.1611 2.29412 19.9578L6.45105 17.5578C7.09758 17.1845 7.61828 17.105 7.9446 17.1244C8.89762 17.927 10.1059 18.357 11.3357 18.3517L11.5722 21.0495C10.1221 21.104 8.63977 20.7638 7.29036 19.9847L6.92663 19.7747C6.35268 19.4433 5.61877 19.64 5.2874 20.2139L4.5074 21.5649C4.15484 22.1756 4.25721 22.5983 4.70878 23.1361C4.88791 23.3495 5.23172 23.6174 5.46252 23.7506C5.63346 23.8493 5.79713 23.9475 5.9567 24.0433C6.80688 24.5534 7.54044 24.9936 8.63646 25.0647C8.79481 25.0749 8.95364 25.0458 9.09927 24.9828C9.40624 24.8501 9.61795 24.7132 9.82355 24.3571L10.3007 23.5306C13.6448 23.8418 17.0165 22.5289 19.2594 19.902C19.4546 19.6734 19.7847 19.6064 20.0451 19.7567L20.2946 19.9007C20.5631 20.1041 21.2299 20.2285 21.7803 19.1359C22.4513 18.113 22.0101 17.5978 21.6997 17.4669L17.5428 15.0669C16.934 14.7154 16.6066 14.3303 16.4482 14.0424C16.5831 13.2843 16.5516 12.4939 16.338 11.7295C16.2144 11.2662 16.0286 10.8282 15.7901 10.4251L18.0554 8.83837C18.8276 10.0669 19.2741 11.5208 19.2741 13.079V13.499C19.2741 14.1617 19.8114 14.699 20.4741 14.699H22.0341C22.7393 14.699 23.0541 14.399 23.2941 13.739ZM12.1137 18.2898C12.7322 18.1934 13.3437 17.9833 13.9183 17.6515C14.3226 17.4181 14.6838 17.1389 14.9991 16.8241C15.3975 16.6302 15.8818 16.6312 16.2944 16.8693C16.7131 17.1111 16.9572 17.5392 16.9824 17.9885C16.9824 17.9885 16.9875 18.3087 16.8675 18.5166C16.8377 18.5682 16.823 18.5943 16.8148 18.6096C16.8085 18.6213 16.806 18.6266 16.8035 18.6321L16.8034 18.6323C16.7959 18.6483 16.7874 18.6665 16.6799 18.8528C16.6275 18.9323 16.4908 19.1236 16.4543 19.1521C15.2802 20.1515 13.8489 20.7785 12.3497 20.9822L12.1137 18.2898ZM6.38812 11.2509C6.01826 12.2399 5.96765 13.2926 6.20076 14.2764C6.23902 14.7884 5.98875 15.3014 5.51435 15.5753C5.09559 15.8171 4.60277 15.8145 4.20113 15.6117C4.20113 15.6117 3.92119 15.4559 3.80119 15.2481C3.77141 15.1965 3.75611 15.1707 3.74701 15.156C3.74002 15.1446 3.73667 15.1398 3.73322 15.1349L3.73308 15.1347C3.72292 15.1202 3.71143 15.1038 3.60387 14.9175C3.56119 14.8324 3.46387 14.6184 3.45743 14.5725C3.179 13.0559 3.35168 11.503 3.92479 10.1027L6.38812 11.2509ZM15.3438 9.7849L17.6084 8.19867C16.6823 7.00223 15.4237 6.07618 13.9711 5.55905C13.9281 5.54168 13.6941 5.51896 13.5991 5.51336C13.384 5.51336 13.364 5.5151 13.3464 5.51666L13.3461 5.51668C13.3401 5.5172 13.3343 5.5177 13.321 5.51809C13.3037 5.51861 13.2737 5.51896 13.2141 5.51896C12.9741 5.51896 12.6993 5.68352 12.6993 5.68352C12.3228 5.92995 12.0741 6.35541 12.0741 6.83896C12.0741 7.46689 12.4935 7.99687 13.0675 8.16405L13.0708 8.16909C13.9687 8.49408 14.7521 9.05836 15.3438 9.7849ZM9.04397 13.7233C8.7831 12.7285 9.20476 11.6434 10.1383 11.1044C11.2575 10.4582 12.6887 10.8416 13.3348 11.9608C13.3568 11.9989 13.3776 12.0374 13.3972 12.0761C13.7122 12.746 13.705 13.5541 13.3069 14.2438C12.7201 15.2601 11.486 15.6698 10.4261 15.2527C9.75908 14.986 9.24349 14.4214 9.04397 13.7233Z" fill="#00E3A9"/>
</svg>
