<svg width="16" height="16" viewBox="0 0 16 16" fill="none" xmlns="http://www.w3.org/2000/svg">
<path d="M15.8481 13.7344L8.99894 1.1772C8.89783 0.992932 8.7581 0.84721 8.57946 0.740254C8.40125 0.633204 8.20795 0.579632 7.99988 0.579632C7.79181 0.579632 7.59848 0.633297 7.42018 0.740254C7.24188 0.84721 7.10206 0.992932 7.00104 1.1772L0.151772 13.7344C-0.0563613 14.1092 -0.0504263 14.4838 0.169578 14.8583C0.270755 15.0307 0.40898 15.1675 0.584346 15.2684C0.759837 15.3695 0.948572 15.4202 1.15074 15.4202H14.8492C15.0516 15.4202 15.2402 15.3695 15.4156 15.2684C15.5912 15.1675 15.7292 15.0307 15.8304 14.8583C16.0504 14.4835 16.0564 14.1092 15.8481 13.7344ZM9.14173 12.8426C9.14173 12.9257 9.1133 12.9955 9.05708 13.052C9.00063 13.1085 8.93372 13.1366 8.85631 13.1366H7.14401C7.06673 13.1366 6.99982 13.1085 6.94338 13.052C6.88687 12.9955 6.85863 12.9257 6.85863 12.8426V11.148C6.85863 11.0649 6.8869 10.995 6.94338 10.9386C6.99982 10.882 7.06664 10.8539 7.14401 10.8539H8.85619C8.93363 10.8539 9.0005 10.882 9.05698 10.9386C9.1133 10.995 9.14163 11.0649 9.14163 11.148V12.8426H9.14173ZM9.12402 9.50721C9.11783 9.56662 9.08659 9.6156 9.03027 9.6543C8.9737 9.69297 8.90389 9.71222 8.82064 9.71222H7.17069C7.0875 9.71222 7.01616 9.69285 6.95674 9.6543C6.89714 9.61547 6.86747 9.56662 6.86747 9.50699L6.71587 5.43146C6.71587 5.34815 6.74564 5.28574 6.80509 5.24416C6.88237 5.17879 6.95371 5.14608 7.01919 5.14608H8.98117C9.0467 5.14608 9.11799 5.17866 9.19527 5.24416C9.25468 5.28574 9.28433 5.34225 9.28433 5.4136L9.12402 9.50721Z" fill="#F2C94C"/>
</svg>
