<svg width="16" height="16" viewBox="0 0 16 16" fill="none" xmlns="http://www.w3.org/2000/svg">
<path fill-rule="evenodd" clip-rule="evenodd" d="M16 8C16 12.4183 12.4183 16 8 16C3.58172 16 0 12.4183 0 8C0 3.58172 3.58172 0 8 0C12.4183 0 16 3.58172 16 8ZM10.625 8.98435C10.7387 8.98435 10.8442 8.92539 10.9041 8.82862C10.964 8.73184 10.9694 8.61105 10.9185 8.50946L10.2622 7.19696C10.2065 7.08577 10.0931 7.0156 9.96872 7.0156H6.03122C5.90688 7.0156 5.79346 7.08577 5.7377 7.19696L5.08145 8.50946C5.0305 8.61105 5.03595 8.73184 5.09586 8.82862C5.15578 8.92539 5.26122 8.98435 5.37497 8.98435H10.625ZM5.14294 10.8789C5.0814 10.8174 5.0468 10.734 5.0468 10.6469V9.96875C5.0468 9.78739 5.19356 9.64063 5.37492 9.64063H10.6249C10.8063 9.64063 10.953 9.78739 10.953 9.96875V10.6469C10.953 10.734 10.9184 10.8174 10.8569 10.8789L10.2007 11.5351C10.1391 11.5966 10.0558 11.6313 9.96867 11.6313H6.03117C5.94402 11.6313 5.8607 11.5966 5.79919 11.5351L5.14294 10.8789ZM4.39056 13.2719C4.39056 13.4532 4.53732 13.6 4.71869 13.6H11.2812C11.4626 13.6 11.6093 13.4532 11.6093 13.2719C11.6093 13.0905 11.4626 12.9437 11.2812 12.9437H9.64056V12.2875H6.35931V12.9437H4.71869C4.53732 12.9437 4.39056 13.0905 4.39056 13.2719ZM4.71871 3.05624C4.53734 3.05624 4.39058 2.90948 4.39058 2.72812C4.39058 2.54675 4.53734 2.39999 4.71871 2.39999H11.2812C11.4626 2.39999 11.6093 2.54675 11.6093 2.72812C11.6093 2.90948 11.4626 3.05624 11.2812 3.05624H9.64058V4.39062H10.2968V4.06249C10.2968 3.88113 10.4436 3.73437 10.625 3.73437C10.8063 3.73437 10.9531 3.88113 10.9531 4.06249V5.37499C10.9531 5.55636 10.8063 5.70312 10.625 5.70312C10.4436 5.70312 10.2968 5.55636 10.2968 5.37499V5.04687H9.64058V5.37499C9.64058 5.55636 9.49382 5.70312 9.31246 5.70312H8.98433V6.35937H7.01558V5.70312H6.68746C6.50609 5.70312 6.35933 5.55636 6.35933 5.37499V3.05624H4.71871Z" fill="white" fill-opacity="0.5"/>
</svg>
